<svg xmlns="http://www.w3.org/2000/svg" width="1200" height="720" viewBox="0 0 1200 720">
<defs><linearGradient id="g" x1="0" x2="1"><stop offset="0" stop-color="#41d1ff"/><stop offset="1" stop-color="#7c5cff"/></linearGradient><filter id="s"><feDropShadow dx="0" dy="18" stdDeviation="25" flood-opacity=".35"/></filter></defs>
<rect width="1200" height="720" fill="#07111f"/><circle cx="160" cy="120" r="210" fill="#41d1ff" opacity=".16"/><circle cx="1040" cy="120" r="250" fill="#7c5cff" opacity=".18"/>
<rect x="120" y="95" width="960" height="530" rx="36" fill="#0d1b2e" stroke="rgba(255,255,255,.18)" filter="url(#s)"/>
<rect x="120" y="95" width="960" height="68" rx="36" fill="rgba(255,255,255,.08)"/><circle cx="170" cy="130" r="10" fill="#ff5f57"/><circle cx="205" cy="130" r="10" fill="#ffbd2e"/><circle cx="240" cy="130" r="10" fill="#28c840"/>
<rect x="170" y="220" width="400" height="42" rx="12" fill="url(#g)"/><rect x="170" y="285" width="315" height="18" rx="9" fill="#eef5ff" opacity=".8"/><rect x="170" y="322" width="500" height="18" rx="9" fill="#a6b5c8" opacity=".5"/><rect x="170" y="360" width="470" height="18" rx="9" fill="#a6b5c8" opacity=".35"/>
<rect x="170" y="440" width="160" height="50" rx="25" fill="url(#g)"/><rect x="350" y="440" width="160" height="50" rx="25" fill="rgba(255,255,255,.08)" stroke="rgba(255,255,255,.16)"/>
<rect x="735" y="220" width="250" height="270" rx="28" fill="rgba(255,255,255,.08)" stroke="rgba(255,255,255,.14)"/><rect x="765" y="255" width="190" height="20" rx="10" fill="#eef5ff" opacity=".8"/><rect x="765" y="310" width="140" height="140" rx="24" fill="url(#g)" opacity=".85"/>
<text x="170" y="570" font-family="Inter, Arial" font-size="34" fill="#eef5ff" font-weight="700">Project 03</text>
</svg>
